<svg width="43" height="16" viewBox="0 0 43 16" fill="none" xmlns="http://www.w3.org/2000/svg">
<path d="M41.8573 7.99074L41.8573 7.99075L41.8594 7.98704C42.2875 7.23072 42.5 6.40078 42.5 5.50712C42.5 4.55133 42.2826 3.68432 41.8351 2.92092C41.3815 2.14721 40.7057 1.55163 39.8331 1.12846C38.9527 0.701491 37.9003 0.5 36.6953 0.5H31H30.5V1V15V15.5H31H34.5159H35.0159V15V10.4744H36.6953C37.9298 10.4744 39.0012 10.2588 39.8862 9.80002C40.7516 9.35139 41.4183 8.75118 41.8573 7.99074ZM37.5886 6.4372C37.3889 6.62283 37.0346 6.76211 36.428 6.76211H35.0159V4.25214H36.428C37.0346 4.25214 37.3889 4.39141 37.5886 4.57705C37.792 4.76614 37.9224 5.05148 37.9224 5.50712C37.9224 5.96277 37.792 6.24811 37.5886 6.4372Z" fill="#FFF9FB" stroke="#FB6F92"/>
<path d="M22.7022 15.2725L22.8501 15.5H23.1214H27H27.9225L27.4189 14.7271L23.0701 8.05225L27.2504 1.26213L27.7196 0.5H26.8246H23.0435H22.7534L22.6094 0.751866L20.5993 4.26832L18.2978 0.727507L18.1499 0.5H17.8786H14H13.0775L13.5811 1.27294L17.8909 7.88786L13.6717 14.7378L13.2022 15.5H14.0975H17.8786H18.1684L18.3124 15.2485L20.3613 11.6712L22.7022 15.2725Z" fill="#FFF9FB" stroke="#FB6F92"/>
<path d="M9.87209 6.5641V6.0641H9.37209H5.07907V4.23219H10H10.5V3.73219V1V0.5H10H1H0.5V1V15V15.5H1H10H10.5V15V12.2678V11.7678H10H5.07907V9.69658H9.37209H9.87209V9.19658V6.5641Z" fill="#FFF9FB" stroke="#FB6F92"/>
</svg>
