<svg width="360" height="220" viewBox="0 0 360 220" fill="none" xmlns="http://www.w3.org/2000/svg">
<line x1="20.5" x2="20.5" y2="220" stroke="#FB6F92"/>
<line x1="40.5" x2="40.5" y2="220" stroke="#FB6F92"/>
<line x1="60.5" x2="60.5" y2="220" stroke="#FB6F92"/>
<line x1="80.5" x2="80.5" y2="220" stroke="#FB6F92"/>
<line x1="100.5" x2="100.5" y2="220" stroke="#FB6F92"/>
<line x1="120.5" x2="120.5" y2="220" stroke="#FB6F92"/>
<line x1="140.5" x2="140.5" y2="220" stroke="#FB6F92"/>
<line x1="160.5" x2="160.5" y2="220" stroke="#FB6F92"/>
<line x1="180.5" x2="180.5" y2="220" stroke="#FB6F92"/>
<line x1="200.5" x2="200.5" y2="220" stroke="#FB6F92"/>
<line x1="220.5" x2="220.5" y2="220" stroke="#FB6F92"/>
<line x1="240.5" x2="240.5" y2="220" stroke="#FB6F92"/>
<line x1="260.5" x2="260.5" y2="220" stroke="#FB6F92"/>
<line x1="280.5" x2="280.5" y2="220" stroke="#FB6F92"/>
<line x1="300.5" x2="300.5" y2="220" stroke="#FB6F92"/>
<line x1="320.5" x2="320.5" y2="220" stroke="#FB6F92"/>
<line x1="340.5" x2="340.5" y2="220" stroke="#FB6F92"/>
<line y1="199.5" x2="360" y2="199.5" stroke="#FB6F92"/>
<line y1="179.5" x2="360" y2="179.5" stroke="#FB6F92"/>
<line y1="79.5" x2="360" y2="79.5" stroke="#FB6F92"/>
<line y1="59.5" x2="360" y2="59.5" stroke="#FB6F92"/>
<line y1="39.5" x2="360" y2="39.5" stroke="#FB6F92"/>
<line y1="19.5" x2="360" y2="19.5" stroke="#FB6F92"/>
<line y1="159.5" x2="360" y2="159.5" stroke="#FB6F92"/>
<line y1="139.5" x2="360" y2="139.5" stroke="#FB6F92"/>
<line y1="119.5" x2="360" y2="119.5" stroke="#FB6F92"/>
<line y1="99.5" x2="360" y2="99.5" stroke="#FB6F92"/>
</svg>
