<svg width="28" height="16" viewBox="0 0 28 16" fill="none" xmlns="http://www.w3.org/2000/svg">
<path d="M26.8573 7.99074L26.8573 7.99075L26.8594 7.98704C27.2875 7.23072 27.5 6.40078 27.5 5.50712C27.5 4.55133 27.2826 3.68432 26.8351 2.92092C26.3815 2.14721 25.7057 1.55163 24.8331 1.12846C23.9527 0.701491 22.9003 0.5 21.6953 0.5H16H15.5V1V15V15.5H16H19.5159H20.0159V15V10.4744H21.6953C22.9298 10.4744 24.0012 10.2588 24.8862 9.80002C25.7516 9.35139 26.4183 8.75118 26.8573 7.99074ZM22.5886 6.4372C22.3889 6.62283 22.0346 6.76211 21.428 6.76211H20.0159V4.25214H21.428C22.0346 4.25214 22.3889 4.39141 22.5886 4.57705C22.792 4.76614 22.9224 5.05148 22.9224 5.50712C22.9224 5.96277 22.792 6.24811 22.5886 6.4372Z" fill="#FFF9FB" stroke="#FB6F92"/>
<path d="M13.5 1V0.5H13H9.625H9.125V1V5.98433H4.875V1V0.5H4.375H1H0.5V1V15V15.5H1H4.375H4.875V15V9.73647H9.125V15V15.5H9.625H13H13.5V15V1Z" fill="#FFF9FB" stroke="#FB6F92"/>
</svg>
